<?xml version="1.0" encoding="UTF-8" standalone="no"?>
<svg
   xmlns:dc="http://purl.org/dc/elements/1.1/"
   xmlns:cc="http://creativecommons.org/ns#"
   xmlns:rdf="http://www.w3.org/1999/02/22-rdf-syntax-ns#"
   xmlns:svg="http://www.w3.org/2000/svg"
   xmlns="http://www.w3.org/2000/svg"
   xmlns:sodipodi="http://sodipodi.sourceforge.net/DTD/sodipodi-0.dtd"
   xmlns:inkscape="http://www.inkscape.org/namespaces/inkscape"
   viewBox="0 0 298.4 103.1"
   version="1.1"
   id="svg3788"
   sodipodi:docname="logo.svg"
   inkscape:version="0.92.3 (2405546, 2018-03-11)">
  <metadata
     id="metadata3794">
    <rdf:RDF>
      <cc:Work
         rdf:about="">
        <dc:format>image/svg+xml</dc:format>
        <dc:type
           rdf:resource="http://purl.org/dc/dcmitype/StillImage" />
      </cc:Work>
    </rdf:RDF>
  </metadata>
  <defs
     id="defs3792" />
  <sodipodi:namedview
     pagecolor="#ffffff"
     bordercolor="#666666"
     borderopacity="1"
     objecttolerance="10"
     gridtolerance="10"
     guidetolerance="10"
     inkscape:pageopacity="0"
     inkscape:pageshadow="2"
     inkscape:window-width="1666"
     inkscape:window-height="834"
     id="namedview3790"
     showgrid="false"
     inkscape:zoom="2.9574397"
     inkscape:cx="139.36526"
     inkscape:cy="52.653718"
     inkscape:window-x="1478"
     inkscape:window-y="384"
     inkscape:window-maximized="0"
     inkscape:current-layer="svg3788" />
  <style
     id="style3772">.a{fill:#21252B;}.b{fill:#797D85;}</style>
  <rect
     width="112.73862"
     height="74.02079"
     class="a"
     id="rect3774"
     x="-0.47818726"
     y="29.318302"
     style="fill:#21252b;stroke-width:1.00149131" />
  <rect
     x="148.54805"
     width="101.47986"
     height="51.465096"
     class="a"
     id="rect3778"
     y="51.634899"
     style="fill:#21252b;stroke-width:0.67252433" />
  <g
     id="g822"
     transform="translate(0,18)">
    <g
       aria-label="EdsonS"
       transform="matrix(1.3228444,0,0,1.2956822,-9.2914313,-14.645164)"
       style="font-style:normal;font-weight:normal;font-size:74.66666412px;line-height:1.25;font-family:sans-serif;letter-spacing:0px;word-spacing:0px;fill:#797d85;fill-opacity:1;stroke:none;stroke-opacity:1"
       id="flowRoot3796">
      <path
         d="m 23.016325,28.852145 v 19.541728 h 10.864617 q 2.369799,0 3.828137,-0.401043 1.494797,-0.437501 2.333341,-1.312504 0.838544,-0.911461 1.16667,-2.260424 0.328126,-1.348962 0.437502,-3.208343 h 1.348962 V 58.419946 H 41.646592 Q 41.391383,56.597024 41.136173,55.466812 40.880964,54.300142 40.625755,53.789723 40.297629,53.133471 39.787211,52.659511 39.276793,52.149093 38.474707,51.784509 37.672621,51.419924 36.542409,51.237632 35.412197,51.05534 33.880942,51.05534 H 23.016325 v 16.296926 q 0,3.244802 0.291668,4.010429 0.145833,0.328126 0.364584,0.619794 0.218751,0.291667 0.619794,0.510418 0.437501,0.182292 1.093753,0.291667 0.692711,0.109376 1.713547,0.109376 h 8.385443 q 2.151048,0 3.572928,-0.109376 1.458338,-0.145833 2.515633,-0.437501 1.093753,-0.328126 1.895839,-0.875003 0.838544,-0.583335 1.750006,-1.458338 1.130211,-1.093753 2.296882,-2.8073 1.16667,-1.713547 2.33334,-4.010429 H 51.30808 L 47.042442,75.591875 H 8.9433642 V 74.242912 H 10.69337 q 0.69271,0 1.458338,-0.145833 0.765627,-0.145834 1.421879,-0.47396 0.692711,-0.328126 1.239587,-0.802086 0.546877,-0.510418 0.765628,-1.16667 0.437501,-1.130212 0.437501,-4.776057 V 34.758414 q 0,-4.666682 -0.94792,-5.796893 -1.312504,-1.458338 -4.375013,-1.458338 H 8.9433642 V 26.15422 H 47.042442 v 10.828159 h -0.875003 q -0.401043,-1.968756 -0.802086,-3.244802 -0.401043,-1.276046 -0.911461,-2.11459 -0.510418,-0.838544 -1.16667,-1.312504 -0.656252,-0.510418 -1.567713,-0.911461 -1.494797,-0.546877 -5.140642,-0.546877 z"
         style="font-style:normal;font-variant:normal;font-weight:normal;font-stretch:normal;font-size:74.66690063px;font-family:'Mongolian Baiti';-inkscape-font-specification:'Mongolian Baiti, Normal';font-variant-ligatures:normal;font-variant-caps:normal;font-variant-numeric:normal;font-feature-settings:normal;text-align:start;writing-mode:lr-tb;text-anchor:start;stroke:none;stroke-opacity:1"
         id="path835"
         inkscape:connector-curvature="0" />
      <path
         d="m 78.980043,71.836655 q -2.442716,2.552091 -4.776057,3.682303 -2.296882,1.093753 -5.031266,1.093753 -2.734383,0 -5.213558,-1.203128 -2.442716,-1.239588 -4.338555,-3.390636 -1.859381,-2.187507 -2.989593,-5.177099 -1.093753,-2.989593 -1.093753,-6.562521 0,-7.182314 4.520847,-13.125041 4.557306,-5.979186 11.630245,-5.979186 4.375014,0 7.29169,2.807301 V 33.044867 q 0,-0.656252 0.03646,-1.42188 0.07292,-0.802086 -0.109375,-1.494796 -0.182293,-0.692711 -0.729169,-1.130212 -0.546877,-0.47396 -1.786464,-0.47396 -0.984378,0 -2.515633,0.583335 l -0.47396,-1.276045 9.953156,-4.083347 h 1.64063 v 38.609496 q 0,5.942727 0.25521,7.182315 0.291667,1.276045 0.875002,1.786464 0.619794,0.510418 1.42188,0.510418 0.947919,0 2.625008,-0.619794 l 0.401043,1.276046 -9.916698,4.119804 h -1.677088 z m 0,-2.552091 V 52.076176 q -0.182293,-2.078131 -0.94792,-3.682303 -0.729169,-1.604172 -1.822922,-2.697925 -1.057295,-1.130212 -2.369799,-1.677089 -1.276046,-0.583335 -2.58855,-0.583335 -1.932298,0 -3.572928,1.020837 -1.64063,0.984378 -2.880217,2.843759 -1.203129,1.822922 -1.89584,4.411472 -0.69271,2.552091 -0.69271,5.687518 0,3.682303 0.875002,6.526062 0.911462,2.843759 2.3698,4.776056 1.458337,1.932298 3.317718,2.916676 1.859381,0.984378 3.791679,0.984378 3.317719,0 6.416687,-3.317718 z"
         style="font-style:normal;font-variant:normal;font-weight:normal;font-stretch:normal;font-size:74.66690063px;font-family:'Mongolian Baiti';-inkscape-font-specification:'Mongolian Baiti, Normal';font-variant-ligatures:normal;font-variant-caps:normal;font-variant-numeric:normal;font-feature-settings:normal;text-align:start;writing-mode:lr-tb;text-anchor:start;stroke:none;stroke-opacity:1"
         id="path837"
         inkscape:connector-curvature="0" />
      <path
         d="m 114.30828,41.211559 v 11.375036 h -1.20313 q -0.69271,-2.697926 -1.56771,-4.447931 -0.875,-1.786464 -2.00521,-2.843759 -1.09376,-1.057295 -2.47918,-1.494796 -1.34896,-0.437502 -3.02605,-0.437502 -1.27605,0 -2.33334,0.401043 -1.02084,0.364585 -1.786465,0.984378 -0.729169,0.583335 -1.16667,1.385421 -0.401043,0.765628 -0.401043,1.567714 0,1.020836 0.291668,1.895839 0.291667,0.875003 1.203128,1.822922 0.947922,0.911461 2.661472,1.968756 1.75,1.057295 4.66668,2.479175 2.69792,1.312504 4.52084,2.58855 1.85938,1.276045 2.9896,2.552091 1.16667,1.276046 1.64063,2.661467 0.51042,1.348962 0.51042,2.8073 0,2.296882 -0.98438,4.192722 -0.94792,1.85938 -2.51564,3.171884 -1.56771,1.312505 -3.57292,2.041674 -2.00522,0.729168 -4.08335,0.729168 -1.53125,0 -3.28126,-0.255209 -1.75001,-0.255209 -3.718762,-0.838544 -0.619793,-0.182292 -1.093753,-0.255209 -0.47396,-0.109375 -0.875003,-0.109375 -0.802086,0 -1.312504,0.947919 H 94.183219 V 64.180381 h 1.203129 q 0.510418,2.552091 1.531255,4.484389 1.020836,1.932298 2.369799,3.208343 1.385418,1.276046 3.026048,1.932298 1.67709,0.656252 3.4271,0.656252 1.23958,0 2.26042,-0.401043 1.0573,-0.401043 1.82292,-1.057295 0.76563,-0.69271 1.16667,-1.604172 0.4375,-0.911461 0.4375,-1.968756 0,-1.239587 -0.36458,-2.223965 -0.36458,-1.020837 -1.34896,-1.968756 -0.98438,-0.94792 -2.69793,-1.968756 -1.71354,-1.057295 -4.41147,-2.406258 -2.697925,-1.312504 -4.375013,-2.442716 -1.64063,-1.130212 -2.58855,-2.260424 -0.94792,-1.16667 -1.276046,-2.406257 -0.328126,-1.276046 -0.328126,-2.880218 0,-2.041673 0.729169,-3.791678 0.765628,-1.786464 2.11459,-3.06251 1.348963,-1.312504 3.208346,-2.041673 1.85938,-0.765627 4.08334,-0.765627 0.69271,0 1.78647,0.218751 1.09375,0.21875 2.1875,0.473959 1.13022,0.25521 2.04168,0.47396 0.91146,0.218751 1.23958,0.218751 0.58334,0 0.91147,-0.255209 0.32812,-0.255209 0.76562,-1.130212 z"
         style="font-style:normal;font-variant:normal;font-weight:normal;font-stretch:normal;font-size:74.66690063px;font-family:'Mongolian Baiti';-inkscape-font-specification:'Mongolian Baiti, Normal';font-variant-ligatures:normal;font-variant-caps:normal;font-variant-numeric:normal;font-feature-settings:normal;text-align:start;writing-mode:lr-tb;text-anchor:start;stroke:none;stroke-opacity:1"
         id="path839"
         inkscape:connector-curvature="0" />
      <path
         d="m 138.07919,41.211559 q 3.53646,0 6.4896,1.385421 2.95313,1.385421 5.06772,3.718762 2.15105,2.33334 3.31772,5.432308 1.20313,3.098968 1.20313,6.526062 0,3.609387 -1.23959,6.927105 -1.20313,3.281261 -3.39063,5.833352 -2.18751,2.552091 -5.21356,4.083346 -3.02605,1.494796 -6.63544,1.494796 -3.53647,0 -6.45314,-1.458337 -2.88022,-1.458338 -4.95835,-3.864596 -2.07813,-2.442716 -3.20834,-5.578142 -1.13022,-3.135427 -1.13022,-6.489604 0,-3.390636 1.16667,-6.635437 1.16667,-3.244802 3.28126,-5.760435 2.15105,-2.552092 5.10419,-4.083346 2.98959,-1.531255 6.59898,-1.531255 z m -1.13022,2.369799 q -1.60417,0 -3.09896,0.69271 -1.45834,0.656253 -2.62501,2.187507 -1.13021,1.494797 -1.82293,3.901054 -0.69271,2.369799 -0.69271,5.796893 0,3.53647 0.72917,6.781272 0.76563,3.244801 2.11459,5.723976 1.38542,2.442716 3.31772,3.901054 1.96876,1.458338 4.37502,1.458338 1.75,0 3.20834,-0.656252 1.4948,-0.692711 2.58855,-2.187507 1.09375,-1.531255 1.71355,-4.010429 0.61979,-2.479175 0.61979,-6.088561 0,-3.609386 -0.69271,-6.781271 -0.69271,-3.171885 -2.04167,-5.541684 -1.31251,-2.406258 -3.28126,-3.791679 -1.9323,-1.385421 -4.41148,-1.385421 z"
         style="font-style:normal;font-variant:normal;font-weight:normal;font-stretch:normal;font-size:74.66690063px;font-family:'Mongolian Baiti';-inkscape-font-specification:'Mongolian Baiti, Normal';font-variant-ligatures:normal;font-variant-caps:normal;font-variant-numeric:normal;font-feature-settings:normal;text-align:start;writing-mode:lr-tb;text-anchor:start;stroke:none;stroke-opacity:1"
         id="path841"
         inkscape:connector-curvature="0" />
      <path
         d="m 168.81366,48.284498 q 5.86981,-7.072939 11.19274,-7.072939 1.85938,0 3.42709,0.619793 1.56772,0.619794 2.73439,2.078132 1.16667,1.458338 1.82292,3.864595 0.65625,2.406258 0.65625,6.015644 v 14.255253 q 0,2.151049 0.21875,3.390636 0.25521,1.239587 0.83855,1.895839 0.58333,0.619794 1.56771,0.802086 0.98438,0.145834 2.47917,0.145834 v 1.312504 h -16.51567 v -1.312504 h 0.69271 q 1.64063,0 2.55209,-0.291668 0.94792,-0.291667 1.42188,-0.984378 0.47396,-0.729169 0.58333,-1.932298 0.14584,-1.203128 0.14584,-3.026051 V 54.373058 q 0,-4.557305 -1.20313,-6.598979 -1.16667,-2.078131 -3.97397,-2.078131 -4.33856,0 -8.64065,4.739598 v 17.60943 q 0,3.317719 0.40104,4.192722 0.25521,0.546876 0.54688,0.947919 0.32812,0.401043 0.83854,0.656252 0.54688,0.218751 1.38542,0.328126 0.875,0.109376 2.26043,0.109376 v 1.312504 h -16.51568 v -1.312504 h 0.72917 q 1.3125,0 2.15105,-0.291668 0.83854,-0.291667 1.3125,-1.020836 0.51042,-0.729169 0.69271,-1.89584 0.18229,-1.203128 0.18229,-3.026051 V 55.649104 q 0,-5.942727 -0.29166,-7.328148 -0.25521,-1.312504 -0.83855,-1.786464 -0.54688,-0.47396 -1.4948,-0.47396 -1.02083,0 -2.44271,0.546877 l -0.54688,-1.312504 10.06253,-4.083346 h 1.56772 z"
         style="font-style:normal;font-variant:normal;font-weight:normal;font-stretch:normal;font-size:74.66690063px;font-family:'Mongolian Baiti';-inkscape-font-specification:'Mongolian Baiti, Normal';font-variant-ligatures:normal;font-variant-caps:normal;font-variant-numeric:normal;font-feature-settings:normal;text-align:start;writing-mode:lr-tb;text-anchor:start;stroke:none;stroke-opacity:1"
         id="path843"
         inkscape:connector-curvature="0" />
      <path
         d="M 228.31384,25.024008 V 42.12302 h -1.34896 q -0.65625,-4.92189 -2.3698,-7.838566 -0.83854,-1.458338 -2.11459,-2.625008 -1.23959,-1.166671 -2.73438,-1.968757 -1.45834,-0.838544 -3.13543,-1.276045 -1.64063,-0.47396 -3.31772,-0.47396 -1.85938,0 -3.46355,0.656252 -1.60417,0.619794 -2.8073,1.677089 -1.16667,1.057295 -1.82292,2.442716 -0.65625,1.348962 -0.65625,2.8073 0,2.041673 0.94792,3.572928 0.94791,1.494796 2.58854,2.770842 1.67709,1.276046 3.90106,2.479174 2.26042,1.203129 4.88543,2.58855 2.95313,1.567713 5.6146,3.06251 2.66147,1.494796 4.66668,3.317718 2.04168,1.786464 3.2448,4.119805 1.20313,2.296882 1.20313,5.541684 0,2.770842 -1.16667,5.286475 -1.13021,2.479174 -3.20834,4.375014 -2.04167,1.859381 -4.92189,2.953134 -2.84376,1.130212 -6.27085,1.130212 -1.27605,0 -2.18751,-0.03646 -0.91146,-0.03646 -1.75001,-0.182292 -0.83854,-0.109375 -1.75,-0.401043 -0.875,-0.255209 -2.11459,-0.729169 -0.875,-0.328126 -1.78647,-0.583335 -0.91146,-0.291667 -1.67708,-0.47396 -0.76563,-0.182292 -1.31251,-0.291667 -0.51042,-0.109376 -0.65625,-0.109376 -0.91146,0 -1.45834,0.546877 -0.51042,0.546877 -0.76563,2.260424 H 199.22 V 59.768909 h 1.34896 q 0.47396,2.661466 1.09376,4.666681 0.65625,1.968756 1.45834,3.317719 0.80208,1.312504 2.07813,2.442716 1.27604,1.130212 2.84376,1.968756 1.60417,0.802086 3.42709,1.276046 1.85938,0.437501 3.79168,0.437501 2.29688,0 4.1198,-0.656252 1.82293,-0.656252 3.09897,-1.750006 1.27605,-1.130211 1.9323,-2.588549 0.69271,-1.494797 0.69271,-3.098968 0,-2.3698 -0.98438,-3.973971 -0.98438,-1.64063 -2.66146,-2.916676 -1.64064,-1.276046 -3.8646,-2.442716 -2.18751,-1.16667 -4.63022,-2.625008 -2.77085,-1.64063 -5.35939,-3.098968 -2.5521,-1.494797 -4.52085,-3.244802 -1.96876,-1.786464 -3.17189,-4.046888 -1.16667,-2.260424 -1.16667,-5.39585 0,-2.625008 1.09376,-4.994807 1.09375,-2.369799 3.02605,-4.156263 1.93229,-1.786464 4.5573,-2.807301 2.66147,-1.057295 5.7969,-1.057295 3.86459,0 8.34898,1.932298 1.96876,0.911461 2.88022,0.911461 0.94792,0 1.53125,-0.546877 0.6198,-0.583335 0.98438,-2.296882 z"
         style="font-style:normal;font-variant:normal;font-weight:normal;font-stretch:normal;font-size:74.66690063px;font-family:'Mongolian Baiti';-inkscape-font-specification:'Mongolian Baiti, Normal';font-variant-ligatures:normal;font-variant-caps:normal;font-variant-numeric:normal;font-feature-settings:normal;text-align:start;writing-mode:lr-tb;text-anchor:start;stroke:none;stroke-opacity:1"
         id="path845"
         inkscape:connector-curvature="0" />
    </g>
  </g>
</svg>
